<?xml version="1.0" encoding="UTF-8" standalone="no"?>
<!-- Created with Inkscape (http://www.inkscape.org/) -->

<svg
   width="247.80785mm"
   height="80.510826mm"
   viewBox="0 0 247.80785 80.510826"
   version="1.1"
   id="svg1"
   sodipodi:docname="mozlogo.svg"
   inkscape:version="1.3 (0e150ed6c4, 2023-07-21)"
   xmlns:inkscape="http://www.inkscape.org/namespaces/inkscape"
   xmlns:sodipodi="http://sodipodi.sourceforge.net/DTD/sodipodi-0.dtd"
   xmlns:xlink="http://www.w3.org/1999/xlink"
   xmlns="http://www.w3.org/2000/svg"
   xmlns:svg="http://www.w3.org/2000/svg">
   <sodipodi:namedview
      id="namedview1"
      pagecolor="#ffffff"
      bordercolor="#000000"
      borderopacity="0.25"
      inkscape:showpageshadow="2"
      inkscape:pageopacity="0.0"
      inkscape:pagecheckerboard="false"
      inkscape:deskcolor="#ffffff"
      inkscape:document-units="px"
      showborder="false"
      inkscape:zoom="0.70710678"
      inkscape:cx="329.51176"
      inkscape:cy="671.75144"
      inkscape:window-width="1366"
      inkscape:window-height="708"
      inkscape:window-x="0"
      inkscape:window-y="26"
      inkscape:window-maximized="1"
      inkscape:current-layer="layer1" />
   <defs
      id="defs1">
      <linearGradient
         id="linearGradient57"
         inkscape:collect="always">
         <stop
            style="stop-color:#763ef4;stop-opacity:1;"
            offset="0"
            id="stop56" />
         <stop
            style="stop-color:#c95555;stop-opacity:1;"
            offset="1"
            id="stop57" />
      </linearGradient>
      <inkscape:path-effect
         effect="fillet_chamfer"
         id="path-effect52"
         is_visible="true"
         lpeversion="1"
         nodesatellites_param="F,0,0,1,0,1,0,1 @ F,0,0,1,0,1,0,1 @ F,0,0,1,0,1,0,1 @ F,0,0,1,0,1,0,1 @ F,0,0,1,0,0.34332194,0,1 @ F,0,0,1,0,0.34332194,0,1 @ F,0,0,1,0,0.34332194,0,1 @ F,0,0,1,0,0.34332194,0,1 @ F,0,0,1,0,1,0,1 @ F,0,0,1,0,1,0,1 @ F,0,0,1,0,1,0,1 @ F,0,0,1,0,1,0,1 @ F,0,0,1,0,1,0,1 @ F,0,0,1,0,1,0,1 @ F,0,1,1,0,0.76459486,0,1 @ F,0,1,1,0,0.76459486,0,1 @ F,0,0,1,0,0.76459486,0,1 @ F,0,1,1,0,0.76459486,0,1 @ F,0,0,1,0,1,0,1 @ F,0,0,1,0,1,0,1 @ F,0,0,1,0,1,0,1 @ F,0,0,1,0,1,0,1 | F,0,0,1,0,0.4545169,0,1 @ F,0,0,1,0,0,0,1 @ F,0,0,1,0,0,0,1 @ F,0,0,1,0,0,0,1 @ F,0,0,1,0,0,0,1 @ F,0,0,1,0,0,0,1 @ F,0,0,1,0,0.4545169,0,1 @ F,0,0,1,0,0.4545169,0,1 | F,0,0,1,0,0.56962615,0,1 @ F,0,0,1,0,0.0222,0,1 @ F,0,0,1,0,0.0222,0,1 @ F,0,0,1,0,0.0222,0,1 @ F,0,0,1,0,0.0222,0,1 @ F,0,0,1,0,0.34579086,0,1 @ F,0,0,1,0,0.56962615,0,1 @ F,0,0,1,0,0.56962615,0,1"
         radius="1"
         unit="px"
         method="auto"
         mode="F"
         chamfer_steps="1"
         flexible="false"
         use_knot_distance="true"
         apply_no_radius="true"
         apply_with_radius="true"
         only_selected="false"
         hide_knots="false" />
      <inkscape:path-effect
         effect="fillet_chamfer"
         id="path-effect51"
         is_visible="true"
         lpeversion="1"
         nodesatellites_param="F,0,0,1,0,2,0,1 @ F,0,0,1,0,2,0,1 @ F,0,0,1,0,2,0,1 @ F,0,0,1,0,2,0,1 @ F,0,0,1,0,2,0,1 @ F,0,0,1,0,2.4262465,0,1 @ F,0,0,1,0,0.0877448,0,1 @ F,0,0,1,0,0,0,1 @ F,0,1,1,0,0.0877448,0,1 @ F,0,0,1,0,2,0,1 @ F,0,0,1,0,0.20382467,0,1 @ F,0,0,1,0,0,0,1 @ F,0,0,1,0,0,0,1 @ F,0,0,1,0,0,0,1 @ F,0,0,1,0,0.049443763,0,1 @ F,0,0,1,0,0.16089147,0,1 | F,0,0,1,0,2,0,1 @ F,0,0,1,0,2,0,1 @ F,0,0,1,0,2,0,1 @ F,0,0,1,0,2,0,1 @ F,0,0,1,0,2,0,1 @ F,0,0,1,0,2,0,1 @ F,0,0,1,0,2,0,1 @ F,0,0,1,0,2,0,1 @ F,0,0,1,0,2,0,1 @ F,0,0,1,0,2,0,1 | F,0,0,1,0,2,0,1 @ F,0,0,1,0,2,0,1 @ F,0,0,1,0,2,0,1 @ F,0,0,1,0,2,0,1 @ F,0,0,1,0,2,0,1 @ F,0,0,1,0,2,0,1 @ F,0,0,1,0,2,0,1 @ F,0,0,1,0,2,0,1"
         radius="2"
         unit="px"
         method="auto"
         mode="F"
         chamfer_steps="1"
         flexible="false"
         use_knot_distance="true"
         apply_no_radius="true"
         apply_with_radius="true"
         only_selected="false"
         hide_knots="false" />
      <inkscape:path-effect
         effect="fillet_chamfer"
         id="path-effect50"
         is_visible="true"
         lpeversion="1"
         nodesatellites_param="F,0,0,1,0,2,0,1 @ F,0,0,1,0,2,0,1 @ F,0,0,1,0,2,0,1 @ F,0,0,1,0,2,0,1 @ F,0,0,1,0,2,0,1 @ F,0,0,1,0,2,0,1 @ F,0,0,1,0,2,0,1 @ F,0,0,1,0,2,0,1 @ F,0,0,1,0,2,0,1 @ F,0,0,1,0,2,0,1 @ F,0,0,1,0,2,0,1 @ F,0,0,1,0,2,0,1 @ F,0,0,1,0,2,0,1 @ F,0,0,1,0,2,0,1 @ F,0,0,1,0,2,0,1 @ F,0,0,1,0,2,0,1 @ F,0,0,1,0,2,0,1 @ F,0,0,1,0,2,0,1 @ F,0,0,1,0,2,0,1 @ F,0,0,1,0,2,0,1 @ F,0,0,1,0,2,0,1 @ F,0,0,1,0,2,0,1 @ F,0,0,1,0,2,0,1 @ F,0,0,1,0,2,0,1 @ F,0,0,1,0,2,0,1 @ F,0,0,1,0,2,0,1 @ F,0,0,1,0,2,0,1 @ F,0,0,1,0,2,0,1 @ F,0,0,1,0,2,0,1 @ F,0,0,1,0,2,0,1 @ F,0,0,1,0,2,0,1 @ F,0,0,1,0,2,0,1 @ F,0,0,1,0,2,0,1 @ F,0,0,1,0,2,0,1 @ F,0,0,1,0,2,0,1 @ F,0,0,1,0,2,0,1 @ F,0,0,1,0,2,0,1 @ F,0,0,1,0,2,0,1 @ F,0,0,1,0,2,0,1 @ F,0,0,1,0,2,0,1 @ F,0,0,1,0,2,0,1 @ F,0,0,1,0,2,0,1 @ F,0,0,1,0,2,0,1 @ F,0,0,1,0,2,0,1 @ F,0,0,1,0,2,0,1 @ F,0,0,1,0,2,0,1 @ F,0,0,1,0,2,0,1 @ F,0,0,1,0,2,0,1 @ F,0,0,1,0,2,0,1 @ F,0,0,1,0,2,0,1 @ F,0,0,1,0,2,0,1 @ F,0,0,1,0,2,0,1 @ F,0,0,1,0,2,0,1 @ F,0,0,1,0,2,0,1 @ F,0,0,1,0,2,0,1 @ F,0,0,1,0,2,0,1 @ F,0,0,1,0,2,0,1 @ F,0,0,1,0,2,0,1 @ F,0,0,1,0,2,0,1 @ F,0,0,1,0,2,0,1 @ F,0,0,1,0,2,0,1 @ F,0,0,1,0,2,0,1 @ F,0,0,1,0,2,0,1 @ F,0,0,1,0,2,0,1 @ F,0,0,1,0,2,0,1 @ F,0,0,1,0,2,0,1 @ F,0,0,1,0,2,0,1 @ F,0,0,1,0,2,0,1 @ F,0,0,1,0,2,0,1 @ F,0,0,1,0,2,0,1 @ F,0,0,1,0,2,0,1 @ F,0,0,1,0,2,0,1 @ F,0,0,1,0,2,0,1 @ F,0,0,1,0,2,0,1 @ F,0,0,1,0,2,0,1 @ F,0,0,1,0,2,0,1"
         radius="2"
         unit="px"
         method="auto"
         mode="F"
         chamfer_steps="1"
         flexible="false"
         use_knot_distance="true"
         apply_no_radius="true"
         apply_with_radius="true"
         only_selected="false"
         hide_knots="false" />
      <inkscape:path-effect
         effect="fillet_chamfer"
         id="path-effect49"
         is_visible="true"
         lpeversion="1"
         nodesatellites_param="F,0,0,1,0,2,0,1 @ F,0,0,1,0,2,0,1 @ F,0,0,1,0,0.0295,0,1 @ F,0,0,1,0,2,0,1 @ F,0,0,1,0,2,0,1 @ F,0,0,1,0,2,0,1 @ F,0,0,1,0,2,0,1 @ F,0,0,1,0,2,0,1 @ F,0,0,1,0,2,0,1 @ F,0,0,1,0,2,0,1 @ F,0,0,1,0,2,0,1 @ F,0,0,1,0,2,0,1 @ F,0,0,1,0,2,0,1 | F,0,0,1,0,2,0,1 @ F,0,0,1,0,2,0,1 @ F,0,0,1,0,2,0,1 @ F,0,0,1,0,2,0,1 @ F,0,0,1,0,2,0,1 @ F,0,0,1,0,2,0,1 @ F,0,0,1,0,2,0,1 @ F,0,0,1,0,2,0,1 @ F,0,0,1,0,2,0,1 @ F,0,0,1,0,2,0,1 @ F,0,0,1,0,2,0,1 @ F,0,0,1,0,2,0,1 @ F,0,0,1,0,2,0,1 @ F,0,0,1,0,2,0,1 @ F,0,0,1,0,2,0,1 | F,0,0,1,0,2,0,1 @ F,0,0,1,0,2,0,1 @ F,0,0,1,0,2,0,1 @ F,0,0,1,0,2,0,1 @ F,0,0,1,0,2,0,1 @ F,0,0,1,0,2,0,1 @ F,0,0,1,0,2,0,1 | F,0,0,1,0,2,0,1 @ F,0,0,1,0,2,0,1 @ F,0,0,1,0,2,0,1 @ F,0,0,1,0,2,0,1 @ F,0,0,1,0,2,0,1"
         radius="2"
         unit="px"
         method="auto"
         mode="F"
         chamfer_steps="1"
         flexible="false"
         use_knot_distance="true"
         apply_no_radius="true"
         apply_with_radius="true"
         only_selected="false"
         hide_knots="false" />
      <linearGradient
         inkscape:collect="always"
         xlink:href="#linearGradient57"
         id="linearGradient53"
         x1="86.790047"
         y1="198.83173"
         x2="66.23941"
         y2="170.8307"
         gradientUnits="userSpaceOnUse" />
      <linearGradient
         inkscape:collect="always"
         xlink:href="#linearGradient57"
         id="linearGradient54"
         x1="150.33662"
         y1="204.36504"
         x2="134.00833"
         y2="171.69643"
         gradientUnits="userSpaceOnUse" />
      <linearGradient
         inkscape:collect="always"
         xlink:href="#linearGradient57"
         id="linearGradient56"
         x1="-3.9345088"
         y1="212.38824"
         x2="-20.740335"
         y2="183.45125"
         gradientUnits="userSpaceOnUse" />
      <linearGradient
         inkscape:collect="always"
         xlink:href="#linearGradient57"
         id="linearGradient60"
         gradientUnits="userSpaceOnUse"
         x1="200.60167"
         y1="136.5219"
         x2="192.07045"
         y2="158.21877" />
   </defs>
   <g
      inkscape:label="Layer 1"
      inkscape:groupmode="layer"
      id="layer1"
      transform="translate(36.207055,-131.87742)">
      <path
         id="path29"
         style="fill:url(#linearGradient53);stroke:#000000;stroke-width:0.266633"
         d="m 69.813049,159.6658 c -15.735497,0.81748 -28.351487,11.21862 -29.527931,24.27592 -0.09909,1.09974 -0.09909,2.89489 -10e-7,3.99464 1.176442,13.05729 13.79243,23.45844 29.527927,24.27592 1.102961,0.0573 1.097123,0.0627 0.0082,-0.11571 -0.346673,-0.0568 -1.006232,-0.21593 -1.46573,-0.37047 -1.700155,-0.56896 -1.700155,-0.56896 -1.700155,-0.56896 -0.950846,-0.49196 -0.950846,-0.49196 -0.950846,-0.49196 -1.450041,-0.84439 -1.450041,-0.84439 -1.450041,-0.84439 -0.928109,-0.71056 -0.928109,-0.71056 -0.928109,-0.71056 -1.263488,-1.10484 -1.263488,-1.10484 -1.263488,-1.10484 -0.847494,-0.90434 -0.847494,-0.90434 -0.847494,-0.90434 -1.078487,-1.34668 -1.078487,-1.34668 -1.078487,-1.34668 -0.722953,-1.0573 -0.722953,-1.0573 -0.722953,-1.0573 -0.885734,-1.58027 -0.885734,-1.58027 -0.885734,-1.58027 -0.567924,-1.15703 -0.567924,-1.15703 -0.567924,-1.15703 -0.677995,-1.81591 -0.677995,-1.81591 -0.677995,-1.81591 -0.391708,-1.18029 -0.391708,-1.18029 -0.391708,-1.18029 -0.443227,-2.05038 -0.559447,-2.59617 -0.657841,-3.17759 -0.230461,-2.69404 -0.234428,-4.16316 -0.141099,-5.26347 0.0596,-0.70263 0.21827,-1.73938 0.342121,-2.31384 0.436155,-2.05339 0.614196,-2.66533 0.84801,-3.30988 0.679545,-1.81953 0.679545,-1.81953 0.679545,-1.81953 0.566891,-1.15548 0.566891,-1.15548 0.566891,-1.15548 0.885734,-1.58027 0.885734,-1.58027 0.885734,-1.58027 0.721403,-1.05523 0.721403,-1.05523 0.721403,-1.05523 1.082104,-1.35185 1.082104,-1.35185 1.082104,-1.35185 0.84491,-0.90072 0.84491,-0.90072 0.84491,-0.90072 1.266589,-1.10743 1.266589,-1.10743 1.266589,-1.10743 0.923975,-0.70745 0.923975,-0.70745 0.923975,-0.70745 1.452624,-0.84594 1.452624,-0.84594 1.452624,-0.84594 0.949813,-0.49145 0.949813,-0.49145 0.949813,-0.49145 1.697571,-0.56844 1.697571,-0.56844 1.697571,-0.56844 0.844393,-0.25321 0.844393,-0.25321 0.844393,-0.25321 2.330312,-0.28549 3.516813,-0.29624 4.605751,-0.11799 0.346086,0.0566 1.006843,0.21596 1.468297,0.3712 1.697571,0.56844 1.697571,0.56844 1.697571,0.56844 0.949812,0.49145 0.949812,0.49145 0.949812,0.49145 1.452625,0.84594 1.452625,0.84594 1.452625,0.84594 0.923974,0.70745 0.923974,0.70745 0.923974,0.70745 1.26659,1.10743 1.26659,1.10743 1.26659,1.10743 0.844909,0.90072 0.844909,0.90072 0.844909,0.90072 1.082105,1.35185 1.082105,1.35185 1.082105,1.35185 0.721403,1.05523 0.721403,1.05523 0.721403,1.05523 0.885734,1.58027 0.885734,1.58027 0.885734,1.58027 0.566891,1.15548 0.566891,1.15548 0.566891,1.15548 0.679545,1.81953 0.679545,1.81953 0.679545,1.81953 0.39119,1.17822 0.39119,1.17822 0.39119,1.17822 0.443557,2.0518 0.559645,2.59715 0.657841,3.17655 0.230476,2.69433 0.237341,4.16365 0.147614,5.26427 -0.12746,1.19826 -0.12746,1.19826 -0.12746,1.19826 -5.17e-4,0.002 -5.17e-4,0.002 -5.17e-4,0.002 -0.479632,2.59904 -0.627356,3.11355 -0.621167,3.11355 -0.81707,2.48316 -1.356249,3.7719 -1.88178,4.74298 -0.517039,0.89957 -0.517039,0.89957 -0.517039,0.89957 -1.440718,2.06347 -1.71823,2.3858 -1.716208,2.3858 -0.0015,0.002 -0.0015,0.002 -0.0015,0.002 -1.711095,1.76245 -2.009849,2.00791 -2.004061,2.00791 -1.945444,1.40881 -2.235492,1.57296 -2.233455,1.57296 -0.0021,0.001 -0.0021,0.001 -0.0021,0.001 -2.129296,1.00638 -2.416402,1.10268 -2.411787,1.10268 -2.250015,0.56428 -2.597428,0.6124 -2.706294,0.6284 17.073872,-1.51858 28.849289,-11.67559 30.017639,-24.23855 0.10225,-1.09946 0.1047,-2.89463 0.006,-3.99438 -1.17644,-13.05729 -13.792428,-23.45844 -29.527924,-24.27592 -1.102961,-0.0573 -1.999053,-0.0519 -1.998982,-0.0521 z"
         inkscape:path-effect="#path-effect50"
         inkscape:original-d="m 71.812154,159.61403 a 31.616684,26.325016 0 0 0 -31.616675,26.32501 31.616684,26.325016 0 0 0 31.616675,26.32501 15.808343,19.743763 0 0 1 -2.615861,-0.28577 15.808343,19.743763 0 0 1 -0.840775,-0.25218 15.808343,19.743763 0 0 1 -1.700155,-0.56896 15.808343,19.743763 0 0 1 -0.950846,-0.49196 15.808343,19.743763 0 0 1 -1.450041,-0.84439 15.808343,19.743763 0 0 1 -0.928109,-0.71056 15.808343,19.743763 0 0 1 -1.263488,-1.10484 15.808343,19.743763 0 0 1 -0.847494,-0.90434 15.808343,19.743763 0 0 1 -1.078487,-1.34668 15.808343,19.743763 0 0 1 -0.722953,-1.0573 15.808343,19.743763 0 0 1 -0.885734,-1.58027 15.808343,19.743763 0 0 1 -0.567924,-1.15703 15.808343,19.743763 0 0 1 -0.677995,-1.81591 15.808343,19.743763 0 0 1 -0.391708,-1.18029 15.808343,19.743763 0 0 1 -0.456302,-2.12907 15.808343,19.743763 0 0 1 -0.201539,-1.04852 15.808343,19.743763 0 0 1 -0.228926,-3.26595 15.808343,19.743763 0 0 1 0.228926,-3.26647 15.808343,19.743763 0 0 1 0.201022,-1.04489 15.808343,19.743763 0 0 1 0.456819,-2.13166 15.808343,19.743763 0 0 1 0.391191,-1.17822 15.808343,19.743763 0 0 1 0.679545,-1.81953 15.808343,19.743763 0 0 1 0.566891,-1.15548 15.808343,19.743763 0 0 1 0.885734,-1.58027 15.808343,19.743763 0 0 1 0.721403,-1.05523 15.808343,19.743763 0 0 1 1.082104,-1.35185 15.808343,19.743763 0 0 1 0.84491,-0.90072 15.808343,19.743763 0 0 1 1.266589,-1.10743 15.808343,19.743763 0 0 1 0.923975,-0.70745 15.808343,19.743763 0 0 1 1.452624,-0.84594 15.808343,19.743763 0 0 1 0.949813,-0.49145 15.808343,19.743763 0 0 1 1.697571,-0.56844 15.808343,19.743763 0 0 1 0.844393,-0.25321 15.808343,19.743763 0 0 1 2.614827,-0.28526 15.808343,19.743763 0 0 1 2.614828,0.28526 15.808343,19.743763 0 0 1 0.844393,0.25321 15.808343,19.743763 0 0 1 1.697571,0.56844 15.808343,19.743763 0 0 1 0.949812,0.49145 15.808343,19.743763 0 0 1 1.452625,0.84594 15.808343,19.743763 0 0 1 0.923974,0.70745 15.808343,19.743763 0 0 1 1.26659,1.10743 15.808343,19.743763 0 0 1 0.844909,0.90072 15.808343,19.743763 0 0 1 1.082105,1.35185 15.808343,19.743763 0 0 1 0.721403,1.05523 15.808343,19.743763 0 0 1 0.885734,1.58027 15.808343,19.743763 0 0 1 0.566891,1.15548 15.808343,19.743763 0 0 1 0.679545,1.81953 15.808343,19.743763 0 0 1 0.39119,1.17822 15.808343,19.743763 0 0 1 0.45682,2.13166 15.808343,19.743763 0 0 1 0.201021,1.04489 15.808343,19.743763 0 0 1 0.228927,3.26647 15.808343,19.743763 0 0 1 -0.208256,3.19206 15.808343,19.743763 0 0 1 -5.17e-4,0.004 15.808343,19.743763 0 0 1 -5.17e-4,0.002 15.808343,19.743763 0 0 1 -0.618567,3.10265 15.808343,19.743763 0 0 1 -0.0026,0.0109 15.808343,19.743763 0 0 1 -1.014925,2.94142 15.808343,19.743763 0 0 1 -1.383378,2.70061 15.808343,19.743763 0 0 1 -5.16e-4,5.2e-4 15.808343,19.743763 0 0 1 -1.714108,2.3828 15.808343,19.743763 0 0 1 -0.0021,0.003 15.808343,19.743763 0 0 1 -0.0015,0.002 15.808343,19.743763 0 0 1 -1.996261,2.00091 15.808343,19.743763 0 0 1 -0.0078,0.007 15.808343,19.743763 0 0 1 -2.230355,1.57096 15.808343,19.743763 0 0 1 -0.0031,0.002 15.808343,19.743763 0 0 1 -0.0021,0.001 15.808343,19.743763 0 0 1 -2.403987,1.09968 15.808343,19.743763 0 0 1 -0.0078,0.003 15.808343,19.743763 0 0 1 -2.509407,0.5979 15.808343,19.743763 0 0 1 -0.196887,0.0305 31.616684,26.325016 0 0 0 30.112889,-26.23561 31.616684,26.325016 0 0 0 -31.616674,-26.32501 z" />
      <path
         id="rect29"
         style="fill:url(#linearGradient54);fill-opacity:1;stroke:#000000;stroke-width:0.305493"
         d="m 116.51111,160.53785 v 5.07232 a 137.79102,137.79102 89.168425 0 0 0.058,3.99916 l 4.5e-4,0.0157 a 2.1176736,2.1176736 44.973786 0 0 2.05726,2.05538 l 3.78222,0.10635 a 85.723984,85.723984 0.2742133 0 0 3.99887,0.0191 l 3.91648,-0.0726 a 215.94529,215.94529 179.46834 0 1 3.99966,-0.0371 l 24.13531,-4.3e-4 a 271754.45,271754.45 179.99949 0 1 4.8525,-4e-5 h 0.46981 a 0.0877448,0.0877448 45 0 1 0.0877,0.0877 v 0.005 a 0.03703259,0.03703259 104.00685 0 1 -0.0175,0.0703 l -3.08048,8.65321 a 0.59882116,0.59882116 36.26363 0 0 0.92509,0.67864 l 17.815,-13.4578 a 0.4094183,0.4094183 116.46594 0 0 0.16264,-0.32668 l 0,-0.40855 0.0238,-0.0165 v -8.33645 a 0.01565698,0.01565698 80.927663 0 1 -0.005,-0.0296 l 0.006,-0.0136 a 0.1069687,0.1069687 56.30538 0 0 -0.0988,-0.14822 l -61.08898,0.0817 a 2.0026782,2.0026782 134.96166 0 0 -2,2.00268 z m 32.76093,19.09928 -31.11776,21.27871 a 3.7905152,3.7905152 117.8176 0 0 -1.65092,3.12892 v 5.0718 a 2,2 45 0 0 2,2 h 3.89926 7.91734 a 2,2 135 0 0 2,-2 v -2.75153 a 4.9248646,4.9248646 112.1022 0 1 1.39444,-3.43371 119022.65,119022.65 134.20535 0 1 2.25675,-2.32024 l 7.41455,-7.62296 a 782929.37,782929.37 134.2061 0 1 2.78897,-2.86735 l 9.90069,-10.17889 a 0.8447047,0.8447047 67.103121 0 0 -0.60551,-1.43367 h -2.54689 a 6.4679878,6.4679878 162.8176 0 0 -3.65092,1.12892 z m -9.3143,23.54089 -1.15032,1.18701 h 23.05842 a 2,2 45 0 1 2,2 v 2.75153 a 2,2 45 0 0 2,2 l 3.90908,0 h 7.89151 a 2,2 135 0 0 2,-2 v -5.0718 a 2,2 45 0 0 -2,-2 l -34.61005,0 a 4.2317353,4.2317353 159.91111 0 0 -3.09864,1.13326 z"
         sodipodi:nodetypes="ccccccccccccccccccccccccccccccccccccc"
         inkscape:path-effect="#path-effect51"
         inkscape:original-d="m 116.51111,158.53785 v 9.07232 l 0.11655,4.01404 7.78064,0.21879 7.9158,-0.14678 28.56156,-5.1e-4 h 2.9838 v 0.093 l 0.0119,-0.0124 -3.78066,10.62004 19.57348,-14.78619 v -0.61237 l 0.0238,-0.0165 v -8.33645 l -0.0238,0.016 0.0868,-0.20763 z m 34.41185,19.97036 -34.4196,23.53655 v 9.0718 h 7.89926 7.91734 v -6.75153 l 2.25671,-2.32027 10.20351,-10.49032 12.68967,-13.04623 h -2.14716 z m -9.86658,23.53655 -1.09864,1.13326 -1.15032,1.18701 h 25.05842 v 6.75153 h 7.90908 7.89151 v -9.0718 z" />
      <path
         id="rect31"
         style="fill:url(#linearGradient60);fill-opacity:1;stroke:#000000;stroke-width:0.234216"
         d="m 190.84933,132.99453 v 7.05474 a 1,1 135 0 1 -1,1 h -8.8815 a 1,1 135 0 0 -1,1 v 6.11475 a 1,1 45 0 0 1,1 h 2.60321 a 0.34332194,0.34332194 45 0 1 0.34332,0.34332 v 0.46213 a 0.34332194,0.34332194 45 0 0 0.34332,0.34332 h 3.25885 a 0.34332194,0.34332194 135 0 0 0.34332,-0.34332 v -0.46213 l 0,-3.14154 a 1,1 135 0 1 1,-1 h 3.43171 a 1,1 135 0 0 1,-1 v -4.80216 a 1,1 135 0 1 1,-1 h 2.86792 a 1,1 45 0 1 1,1 l 0,4.80216 a 1,1 45 0 0 1,1 h 3.43223 a 1.0116012,1.0116012 44.669571 0 1 1.01153,0.99993 l 0.0202,1.74669 a 132.57798,132.57798 89.669571 0 1 0.009,1.52913 0.64676141,0.64676141 29.998848 0 0 0.76254,0.44024 l 2.37987,0.17494 a 0.71045124,0.71045124 137.10218 0 0 0.76254,-0.70853 0.60506026,0.60506026 153.32249 0 1 0.76459,-0.38418 h 2.18194 a 1,1 135 0 0 1,-1 l 0,-6.11475 a 1,1 45 0 0 -1,-1 h -8.88202 a 1,1 45 0 1 -1,-1 v -7.05474 a 1,1 45 0 0 -1,-1 l -7.75234,0 a 1,1 135 0 0 -1,1 z m 0,18.92206 v 6.30218 h 1.22112 v 0.0222 h 1.22111 v -0.0222 -6.30218 a 0.4545169,0.4545169 45 0 0 -0.45452,-0.45452 h -0.31207 -1.22112 a 0.4545169,0.4545169 135 0 0 -0.45452,0.45452 z m 7.31015,0.11511 v 6.16487 0.0444 h 1.19892 a 0.0222,0.0222 135 0 0 0.0222,-0.0222 h 0.87532 a 0.34579086,0.34579086 135 0 0 0.34579,-0.34579 v -5.84128 a 0.56962615,0.56962615 45 0 0 -0.56963,-0.56963 h -0.0819 -1.22112 a 0.56962615,0.56962615 135 0 0 -0.56963,0.56963 z"
         inkscape:path-effect="#path-effect52"
         inkscape:original-d="m 190.84933,131.99453 v 9.05474 h -10.8815 v 8.11475 h 3.94653 v 1.14877 h 3.94549 v -1.14877 -3.79822 h 5.43171 v -6.80216 h 4.86792 v 6.80216 h 5.43223 l 0.0405,3.51116 v 1.14877 l 3.90495,0.28706 v -1.14877 h 3.94653 v -8.11475 h -10.88202 v -9.05474 z m 0,19.46754 v 6.7567 h 1.22112 v 0.0222 h 1.22111 v -0.0222 -6.7567 h -1.22111 z m 7.31015,0 v 6.7567 0.0222 h 1.22112 v -0.0222 h 1.22111 v -6.7567 h -1.22111 z"
         sodipodi:nodetypes="ccccccccccccccccccccccccccccccccccccccccc" />
      <path
         id="rect33"
         style="fill:url(#linearGradient56);fill-opacity:1;stroke:#000000;stroke-width:0.247975"
         d="m -36.083069,161.58044 v 48.62004 a 2,2 45 0 0 2,2 h 5.884229 a 0.0295,0.0295 45 0 1 0.0295,0.0295 h 5.429004 a 2,2 135 0 0 2,-2 v -22.77873 -4 -8.70361 a 2,2 135 0 1 2,-2 h 0.30413 2.322461 a 38647.219,38647.219 52.616338 0 1 -3.461637,-4.53014 l -0.34915,-0.45698 a 54358.593,54358.593 52.616752 0 0 -2.428575,-3.17837 l -2.607694,-3.41253 a 4.0454114,4.0454114 26.307438 0 0 -3.214346,-1.58915 l -5.907922,-2e-5 a 1.9999919,1.9999919 135.00012 0 0 -2,1.99999 z m 52.146272,-0.34984 -2.526662,3.38101 a 181682.31,181682.31 126.77057 0 0 -2.394449,3.20415 l -1.1872802,1.58881 a 2527375.1,2527375.1 126.76998 0 1 -2.3944161,3.20418 l -10.5603462,14.13171 a 1.5113488,1.5113488 179.69262 0 1 -2.4115391,0.0129 l -7.3335354,-9.59715 a 0.1573887,0.1573887 147.11479 0 0 -0.263523,0.17039 l 1.086318,2.0103 a 162421.59,162421.59 61.615081 0 1 1.901571,3.5191 l 5.2484231,9.71315 a 1.068746,1.068746 179.73463 0 0 1.8851877,-0.009 L 6.360738,175.06008 a 7180.3659,7180.3659 117.84889 0 0 1.2026247,-2.27627 h 0.056844 3.2007163 a 2,2 45 0 1 2,2 v 8.19099 27.29187 a 1.99759,1.99759 44.965458 0 0 1.999999,1.99759 l 10.347963,-0.0125 a 2.0024129,2.0024129 134.96546 0 0 1.999999,-2.00241 V 161.6285 a 1.9999919,1.9999919 44.999884 0 0 -2,-1.99999 l -5.908439,2e-5 a 3.9914219,3.9914219 153.38548 0 0 -3.197242,1.60207 z m -31.545979,28.10168 v 2.34288 l 4.884182,5.7818 a 53.295791,53.295791 51.959613 0 1 2.4631334,3.14809 l 2.157054,2.98081 a 0.08805725,0.08805725 146.62974 0 0 0.1469367,-0.0968 6.1246665,6.1246665 59.144024 0 0 -0.7944823,-1.3298 l -7.8311868,-13.11001 a 0.55186349,0.55186349 164.57413 0 0 -1.025637,0.28301 z m 22.0150334,0.2682 -4.1255255,6.85669 a 154670.34,154670.34 121.03402 0 0 -1.55717135,2.58809 l 5.41778235,-6.36774 a 4.7291459,4.7291459 113.38503 0 0 1.2960198,-2.99707 v -1.79369 z"
         sodipodi:nodetypes="cccccccccccccccccccccccccccccccccccccccccccc"
         inkscape:path-effect="#path-effect49"
         inkscape:original-d="m -36.083069,159.58044 v 52.62004 h 7.913729 v 0.0295 h 7.429004 v -26.77873 -2.26601 -10.4376 h 4.30413 0.322461 l -2.247408,-2.94091 -2.777608,-3.63544 -5.036386,-6.59081 z m 53.343514,0.0481 -4.921146,6.58513 -3.581694,4.79299 -12.9547648,17.33589 -9.7621952,-12.77545 2.987932,5.52938 7.1499508,13.23227 11.1166342,-21.03696 0.2682007,-0.50798 h 0.056844 5.2007163 v 12.19099 27.29187 l 14.347961,-0.0173 V 159.6285 Z m -32.743221,27.70374 v 3.11867 1.22421 l 6.174817,7.30963 4.5020508,6.22133 -1.8195272,-3.04633 -5.168e-4,-5.1e-4 z m 23.0461387,0.55448 -6.1877361,10.28413 -0.52606605,0.87437 6.71380215,-7.891 v -1.47381 z" />
   </g>
</svg>